<?xml version="1.0" encoding="UTF-8" standalone="no"?><!-- Generator: Gravit.io --><svg xmlns="http://www.w3.org/2000/svg" xmlns:xlink="http://www.w3.org/1999/xlink" style="isolation:isolate" viewBox="0 0 1500 400" width="1500pt" height="400pt"><defs><clipPath id="_clipPath_Xj0x4NAze3aTOWW6zinx8Hp3ZPxqhNn4"><rect width="1500" height="400"/></clipPath></defs><g clip-path="url(#_clipPath_Xj0x4NAze3aTOWW6zinx8Hp3ZPxqhNn4)"><g><rect x="0" y="0" width="400" height="400" transform="matrix(1,0,0,1,0,0)" fill="rgb(232,232,232)"/><path d=" M 207.873 403 C 200.345 385.164 196.198 365.562 196.198 345 C 196.198 262.213 263.411 195 346.198 195 C 365.607 195 384.16 198.694 401.198 205.404 L 401.198 403 L 207.873 403 L 207.873 403 Z " fill="rgb(70,70,70)"/><path d=" M 401.198 194.596 C 384.16 201.306 365.607 205 346.198 205 C 263.411 205 196.198 137.787 196.198 55 C 196.198 35.591 199.893 17.038 206.603 0 L 401.198 0 L 401.198 194.596 L 401.198 194.596 Z " fill="rgb(70,70,70)"/><path d=" M 195.794 0 C 202.504 17.038 206.198 35.591 206.198 55 C 206.198 137.787 138.986 205 56.198 205 C 36.405 205 17.502 201.158 0.198 194.172 L 0.198 0 L 195.794 0 L 195.794 0 Z " fill="rgb(70,70,70)"/><g><path d=" M 0.181 227.166 C 20.348 213.186 44.825 205 71.198 205 C 140.188 205 196.198 261.011 196.198 330 C 196.198 357.241 187.466 382.458 172.646 403 L 0.011 403 C -0.026 370.128 0.029 311.986 0.181 227.166 L 0.181 227.166 Z " fill="rgb(29,110,183)"/><path d=" M 0.101 279.013 C 15.988 256.908 41.924 242.5 71.198 242.5 C 119.491 242.5 158.698 281.707 158.698 330 C 158.698 360.481 143.079 387.342 119.407 403 L 22.99 403 L 22.99 403 C 14.034 397.076 6.231 389.549 0.011 380.813 C 0.003 357.3 0.03 324.295 0.101 279.013 L 0.101 279.013 Z " fill="rgb(0,159,226)"/><path d=" M 21.198 330 C 21.198 302.404 43.603 280 71.198 280 C 98.794 280 121.198 302.404 121.198 330 C 121.198 357.596 98.794 380 71.198 380 C 43.603 380 21.198 357.596 21.198 330 Z " fill="rgb(232,232,232)"/></g></g><g><path d=" M 861.2 151.7 L 861.2 167.7 L 861.2 167.7 Q 873.2 150.1 897 150.1 L 897 150.1 L 897 150.1 Q 918.6 150.1 932 165.1 L 932 165.1 L 932 165.1 Q 945.4 179.9 945.4 201.7 L 945.4 201.7 L 945.4 201.7 Q 945.4 223.5 932 238.3 L 932 238.3 L 932 238.3 Q 918.6 253.3 896 253.3 L 896 253.3 L 896 253.3 Q 873.4 253.3 861.2 235.5 L 861.2 235.5 L 861.2 291.3 L 846.2 291.3 L 846.2 151.7 L 861.2 151.7 Z  M 895 163.7 L 895 163.7 L 895 163.7 Q 878.8 163.7 869.4 174.9 L 869.4 174.9 L 869.4 174.9 Q 860.4 185.5 860.4 201.7 L 860.4 201.7 L 860.4 201.7 Q 860.4 217.9 869.4 228.5 L 869.4 228.5 L 869.4 228.5 Q 878.8 239.7 895 239.7 L 895 239.7 L 895 239.7 Q 911 239.7 921 228.5 L 921 228.5 L 921 228.5 Q 930.4 217.9 930.4 201.7 L 930.4 201.7 L 930.4 201.7 Q 930.4 185.5 921 174.9 L 921 174.9 L 921 174.9 Q 911 163.7 895 163.7 Z  M 1006.8 150.1 L 1007.8 150.1 L 1007.8 165.1 L 1006 165.1 L 1006 165.1 Q 989.8 165.1 979.6 178.1 L 979.6 178.1 L 979.6 178.1 Q 970 190.5 970 207.7 L 970 207.7 L 970 251.7 L 955 251.7 L 955 151.7 L 970 151.7 L 970 176.3 L 970 176.3 Q 974.8 160.7 990.8 153.3 L 990.8 153.3 L 990.8 153.3 Q 997.4 150.1 1006.8 150.1 L 1006.8 150.1 Z  M 1054.8 150.1 L 1054.8 150.1 L 1054.8 150.1 Q 1077.2 150.1 1091.2 165.1 L 1091.2 165.1 L 1091.2 165.1 Q 1104.4 179.5 1104.4 201.7 L 1104.4 201.7 L 1104.4 201.7 Q 1104.4 223.9 1091.2 238.3 L 1091.2 238.3 L 1091.2 238.3 Q 1077.2 253.3 1054.8 253.3 L 1054.8 253.3 L 1054.8 253.3 Q 1032.4 253.3 1018.4 238.3 L 1018.4 238.3 L 1018.4 238.3 Q 1005.2 223.9 1005.2 201.7 L 1005.2 201.7 L 1005.2 201.7 Q 1005.2 179.5 1018.4 165.1 L 1018.4 165.1 L 1018.4 165.1 Q 1032.4 150.1 1054.8 150.1 Z  M 1054.8 239.7 L 1054.8 239.7 L 1054.8 239.7 Q 1071 239.7 1080.4 228.5 L 1080.4 228.5 L 1080.4 228.5 Q 1089.4 217.9 1089.4 201.7 L 1089.4 201.7 L 1089.4 201.7 Q 1089.4 185.5 1080.4 174.9 L 1080.4 174.9 L 1080.4 174.9 Q 1071 163.7 1054.8 163.7 L 1054.8 163.7 L 1054.8 163.7 Q 1038.6 163.7 1029.2 174.9 L 1029.2 174.9 L 1029.2 174.9 Q 1020.2 185.5 1020.2 201.7 L 1020.2 201.7 L 1020.2 201.7 Q 1020.2 217.9 1029.2 228.5 L 1029.2 228.5 L 1029.2 228.5 Q 1038.6 239.7 1054.8 239.7 Z  M 1180.2 151.7 L 1196.6 151.7 L 1157.6 251.7 L 1140 251.7 L 1100.8 151.7 L 1117.2 151.7 L 1148.8 235.7 L 1180.2 151.7 Z  M 1200.6 251.7 L 1200.6 151.7 L 1215.6 151.7 L 1215.6 251.7 L 1200.6 251.7 Z  M 1200 115.3 L 1216.2 115.3 L 1216.2 134.9 L 1200 134.9 L 1200 115.3 Z  M 1309.6 251.7 L 1309.6 235.7 L 1309.6 235.7 Q 1297.6 253.3 1273.8 253.3 L 1273.8 253.3 L 1273.8 253.3 Q 1252.2 253.3 1238.6 238.3 L 1238.6 238.3 L 1238.6 238.3 Q 1225.4 223.5 1225.4 201.7 L 1225.4 201.7 L 1225.4 201.7 Q 1225.4 179.9 1238.6 165.1 L 1238.6 165.1 L 1238.6 165.1 Q 1252.2 150.1 1274.8 150.1 L 1274.8 150.1 L 1274.8 150.1 Q 1297.4 150.1 1309.6 167.9 L 1309.6 167.9 L 1309.6 111.7 L 1324.6 111.7 L 1324.6 251.7 L 1309.6 251.7 Z  M 1275.8 239.7 L 1275.8 239.7 L 1275.8 239.7 Q 1292 239.7 1301.4 228.5 L 1301.4 228.5 L 1301.4 228.5 Q 1310.4 217.9 1310.4 201.7 L 1310.4 201.7 L 1310.4 201.7 Q 1310.4 185.5 1301.4 174.9 L 1301.4 174.9 L 1301.4 174.9 Q 1292 163.7 1275.8 163.7 L 1275.8 163.7 L 1275.8 163.7 Q 1259.8 163.7 1249.8 174.9 L 1249.8 174.9 L 1249.8 174.9 Q 1240.4 185.5 1240.4 201.7 L 1240.4 201.7 L 1240.4 201.7 Q 1240.4 217.9 1249.8 228.5 L 1249.8 228.5 L 1249.8 228.5 Q 1259.8 239.7 1275.8 239.7 Z  M 1385.2 239.7 L 1385.2 239.7 L 1385.2 239.7 Q 1405.4 239.7 1414.2 222.9 L 1414.2 222.9 L 1430.6 222.9 L 1430.6 222.9 Q 1425.4 236.5 1414.1 244.9 L 1414.1 244.9 L 1414.1 244.9 Q 1402.8 253.3 1385 253.3 L 1385 253.3 L 1385 253.3 Q 1362.4 253.3 1348.2 238.3 L 1348.2 238.3 L 1348.2 238.3 Q 1334.4 223.7 1334.4 201.7 L 1334.4 201.7 L 1334.4 201.7 Q 1334.4 179.5 1347.6 165.1 L 1347.6 165.1 L 1347.6 165.1 Q 1361.6 150.1 1384 150.1 L 1384 150.1 L 1384 150.1 Q 1406.4 150.1 1420.4 165.1 L 1420.4 165.1 L 1420.4 165.1 Q 1433.6 179.5 1433.6 201.7 L 1433.6 201.7 L 1433.6 207.7 L 1349.8 207.7 L 1349.8 207.7 Q 1351.4 221.5 1360.8 230.5 L 1360.8 230.5 L 1360.8 230.5 Q 1370.4 239.7 1385.2 239.7 Z  M 1384 163.7 L 1384 163.7 L 1384 163.7 Q 1370.2 163.7 1360.8 172.3 L 1360.8 172.3 L 1360.8 172.3 Q 1352 180.5 1350 193.7 L 1350 193.7 L 1418 193.7 L 1418 193.7 Q 1416 180.5 1407.2 172.3 L 1407.2 172.3 L 1407.2 172.3 Q 1397.8 163.7 1384 163.7 Z  M 1493.8 150.1 L 1494.8 150.1 L 1494.8 165.1 L 1493 165.1 L 1493 165.1 Q 1476.8 165.1 1466.6 178.1 L 1466.6 178.1 L 1466.6 178.1 Q 1457 190.5 1457 207.7 L 1457 207.7 L 1457 251.7 L 1442 251.7 L 1442 151.7 L 1457 151.7 L 1457 176.3 L 1457 176.3 Q 1461.8 160.7 1477.8 153.3 L 1477.8 153.3 L 1477.8 153.3 Q 1484.4 150.1 1493.8 150.1 L 1493.8 150.1 Z " fill="rgb(29,110,183)"/><path d=" M 543.8 140.5 L 508 251.7 L 491 251.7 L 449.8 119.3 L 465.6 119.3 L 499.6 230.5 L 535.2 119.3 L 552.4 119.3 L 588 230.5 L 622 119.3 L 637.8 119.3 L 596.6 251.7 L 579.6 251.7 L 543.8 140.5 Z  M 680.6 239.7 L 680.6 239.7 L 680.6 239.7 Q 700.8 239.7 709.6 222.9 L 709.6 222.9 L 726 222.9 L 726 222.9 Q 720.8 236.5 709.5 244.9 L 709.5 244.9 L 709.5 244.9 Q 698.2 253.3 680.4 253.3 L 680.4 253.3 L 680.4 253.3 Q 657.8 253.3 643.6 238.3 L 643.6 238.3 L 643.6 238.3 Q 629.8 223.7 629.8 201.7 L 629.8 201.7 L 629.8 201.7 Q 629.8 179.5 643 165.1 L 643 165.1 L 643 165.1 Q 657 150.1 679.4 150.1 L 679.4 150.1 L 679.4 150.1 Q 701.8 150.1 715.8 165.1 L 715.8 165.1 L 715.8 165.1 Q 729 179.5 729 201.7 L 729 201.7 L 729 207.7 L 645.2 207.7 L 645.2 207.7 Q 646.8 221.5 656.2 230.5 L 656.2 230.5 L 656.2 230.5 Q 665.8 239.7 680.6 239.7 Z  M 679.4 163.7 L 679.4 163.7 L 679.4 163.7 Q 665.6 163.7 656.2 172.3 L 656.2 172.3 L 656.2 172.3 Q 647.4 180.5 645.4 193.7 L 645.4 193.7 L 713.4 193.7 L 713.4 193.7 Q 711.4 180.5 702.6 172.3 L 702.6 172.3 L 702.6 172.3 Q 693.2 163.7 679.4 163.7 Z  M 752.4 111.7 L 752.4 167.9 L 752.4 167.9 Q 764.6 150.1 788.2 150.1 L 788.2 150.1 L 788.2 150.1 Q 809.8 150.1 823.2 165.1 L 823.2 165.1 L 823.2 165.1 Q 836.6 179.9 836.6 201.7 L 836.6 201.7 L 836.6 201.7 Q 836.6 223.5 823.2 238.3 L 823.2 238.3 L 823.2 238.3 Q 809.8 253.3 787.1 253.3 L 787.1 253.3 L 787.1 253.3 Q 764.4 253.3 752.4 235.7 L 752.4 235.7 L 752.4 251.7 L 737.4 251.7 L 737.4 111.7 L 752.4 111.7 Z  M 786.2 239.7 L 786.2 239.7 L 786.2 239.7 Q 802.2 239.7 812.2 228.5 L 812.2 228.5 L 812.2 228.5 Q 821.6 217.9 821.6 201.7 L 821.6 201.7 L 821.6 201.7 Q 821.6 185.5 812.2 174.9 L 812.2 174.9 L 812.2 174.9 Q 802.2 163.7 786.2 163.7 L 786.2 163.7 L 786.2 163.7 Q 770 163.7 760.6 174.9 L 760.6 174.9 L 760.6 174.9 Q 751.6 185.5 751.6 201.7 L 751.6 201.7 L 751.6 201.7 Q 751.6 217.9 760.6 228.5 L 760.6 228.5 L 760.6 228.5 Q 770 239.7 786.2 239.7 Z " fill="rgb(0,159,226)"/></g></g></svg>