<?xml version="1.0" encoding="UTF-8" standalone="no"?><!-- Generator: Gravit.io --><svg xmlns="http://www.w3.org/2000/svg" xmlns:xlink="http://www.w3.org/1999/xlink" style="isolation:isolate" viewBox="0 0 400 400" width="400pt" height="400pt"><defs><clipPath id="_clipPath_xmVwWycAXf4diiOheXXokcR5Tu9W22UI"><rect width="400" height="400"/></clipPath></defs><g clip-path="url(#_clipPath_xmVwWycAXf4diiOheXXokcR5Tu9W22UI)"><g><rect x="0" y="0" width="400" height="400" transform="matrix(1,0,0,1,0,0)" fill="rgb(232,232,232)"/><path d=" M 207.873 403 C 200.345 385.164 196.198 365.562 196.198 345 C 196.198 262.213 263.411 195 346.198 195 C 365.607 195 384.16 198.694 401.198 205.404 L 401.198 403 L 207.873 403 L 207.873 403 Z " fill="rgb(70,70,70)"/><path d=" M 401.198 194.596 C 384.16 201.306 365.607 205 346.198 205 C 263.411 205 196.198 137.787 196.198 55 C 196.198 35.591 199.893 17.038 206.603 0 L 401.198 0 L 401.198 194.596 L 401.198 194.596 Z " fill="rgb(70,70,70)"/><path d=" M 195.794 0 C 202.504 17.038 206.198 35.591 206.198 55 C 206.198 137.787 138.986 205 56.198 205 C 36.405 205 17.502 201.158 0.198 194.172 L 0.198 0 L 195.794 0 L 195.794 0 Z " fill="rgb(70,70,70)"/><g><path d=" M 0.181 227.166 C 20.348 213.186 44.825 205 71.198 205 C 140.188 205 196.198 261.011 196.198 330 C 196.198 357.241 187.466 382.458 172.646 403 L 0.011 403 C -0.026 370.128 0.029 311.986 0.181 227.166 L 0.181 227.166 Z " fill="rgb(29,110,183)"/><path d=" M 0.101 279.013 C 15.988 256.908 41.924 242.5 71.198 242.5 C 119.491 242.5 158.698 281.707 158.698 330 C 158.698 360.481 143.079 387.342 119.407 403 L 22.99 403 L 22.99 403 C 14.034 397.076 6.231 389.549 0.011 380.813 C 0.003 357.3 0.03 324.295 0.101 279.013 L 0.101 279.013 Z " fill="rgb(0,159,226)"/><path d=" M 21.198 330 C 21.198 302.404 43.603 280 71.198 280 C 98.794 280 121.198 302.404 121.198 330 C 121.198 357.596 98.794 380 71.198 380 C 43.603 380 21.198 357.596 21.198 330 Z " fill="rgb(232,232,232)"/></g></g></g></svg>